<svg width="35" height="35" viewBox="0 0 35 35" fill="none" xmlns="http://www.w3.org/2000/svg">
<path d="M17.5003 2.91699C9.45908 2.91699 2.91699 9.45908 2.91699 17.5003C2.91699 25.5416 9.45908 32.0837 17.5003 32.0837C25.5416 32.0837 32.0837 25.5416 32.0837 17.5003C32.0837 9.45908 25.5416 2.91699 17.5003 2.91699ZM23.6049 18.5795L17.5003 24.6841L11.3957 18.5795C11.0185 18.2071 10.719 17.7635 10.5146 17.2745C10.3102 16.7855 10.2049 16.2607 10.2049 15.7306C10.2049 15.2006 10.3102 14.6758 10.5146 14.1868C10.719 13.6977 11.0185 13.2542 11.3957 12.8818C11.7681 12.5048 12.2116 12.2055 12.7005 12.0012C13.1894 11.7969 13.714 11.6917 14.2439 11.6917C14.7737 11.6917 15.2983 11.7969 15.7872 12.0012C16.2762 12.2055 16.7196 12.5048 17.092 12.8818L17.5003 13.2887L17.9072 12.8818C18.2795 12.5048 18.723 12.2055 19.2119 12.0012C19.7008 11.7969 20.2255 11.6917 20.7553 11.6917C21.2852 11.6917 21.8098 11.7969 22.2987 12.0012C22.7876 12.2055 23.2311 12.5048 23.6034 12.8818C23.9808 13.2541 24.2804 13.6976 24.4849 14.1866C24.6895 14.6755 24.7949 15.2003 24.795 15.7303C24.7951 16.2604 24.69 16.7852 24.4857 17.2743C24.2814 17.7634 23.982 18.207 23.6049 18.5795Z" fill="#EEEDF2"/>
</svg>
