<svg width="15" height="17" viewBox="0 0 15 17" fill="none" xmlns="http://www.w3.org/2000/svg">
<path d="M1.66667 16.6673H13.3333C13.7754 16.6673 14.1993 16.4917 14.5118 16.1792C14.8244 15.8666 15 15.4427 15 15.0007V7.50066C15.0006 7.39099 14.9796 7.28227 14.9381 7.18074C14.8967 7.07921 14.8356 6.98686 14.7583 6.90899L8.09167 0.242327C7.93553 0.0871181 7.72432 0 7.50417 0C7.28401 0 7.0728 0.0871181 6.91667 0.242327L0.25 6.90899C0.17126 6.98617 0.108618 7.07821 0.0657044 7.17977C0.0227905 7.28134 0.000457708 7.3904 0 7.50066V15.0007C0 15.4427 0.175595 15.8666 0.488155 16.1792C0.800716 16.4917 1.22464 16.6673 1.66667 16.6673ZM5.83333 15.0007V10.834H9.16667V15.0007H5.83333ZM1.66667 7.84233L7.5 2.00899L13.3333 7.84233V15.0007H10.8333V10.834C10.8333 10.392 10.6577 9.96804 10.3452 9.65548C10.0326 9.34292 9.60869 9.16733 9.16667 9.16733H5.83333C5.39131 9.16733 4.96738 9.34292 4.65482 9.65548C4.34226 9.96804 4.16667 10.392 4.16667 10.834V15.0007H1.66667V7.84233Z" fill="#281BC0"/>
</svg>
